<svg width="24" height="24" viewBox="0 0 24 24" fill="none" xmlns="http://www.w3.org/2000/svg">
<path fill-rule="evenodd" clip-rule="evenodd" d="M2 2C2.55228 2 3 2.44772 3 3V21H21C21.5523 21 22 21.4477 22 22C22 22.5523 21.5523 23 21 23H2C1.44772 23 1 22.5523 1 22V3C1 2.44772 1.44772 2 2 2Z" fill="currentColor"/>
<path fill-rule="evenodd" clip-rule="evenodd" d="M12 7C12 6.44772 12.4477 6 13 6H18C18.5523 6 19 6.44772 19 7V12C19 12.5523 18.5523 13 18 13C17.4477 13 17 12.5523 17 12V9.41421L12.7071 13.7071C12.3166 14.0976 11.6834 14.0976 11.2929 13.7071L10 12.4142L6.70711 15.7071C6.31658 16.0976 5.68342 16.0976 5.29289 15.7071C4.90237 15.3166 4.90237 14.6834 5.29289 14.2929L9.29289 10.2929C9.68342 9.90237 10.3166 9.90237 10.7071 10.2929L12 11.5858L15.5858 8H13C12.4477 8 12 7.55228 12 7Z" fill="currentColor"/>
</svg>
