<svg width="16" height="17" viewBox="0 0 16 17" fill="none" xmlns="http://www.w3.org/2000/svg">
<path d="M8 16.3136C7.04 16.207 6.08333 15.9303 5.13 15.4836C4.17667 15.037 3.32 14.417 2.56 13.6236C1.8 12.8303 1.18333 11.8503 0.71 10.6836C0.236667 9.51695 0 8.16028 0 6.61362V5.85362H0.76C1.46667 5.85362 2.22 5.99028 3.02 6.26362C3.82 6.53695 4.52667 6.88695 5.14 7.31362C5.24667 6.11362 5.56667 4.87695 6.1 3.60362C6.63333 2.33028 7.26667 1.24028 8 0.333618C8.73333 1.24028 9.36667 2.33028 9.9 3.60362C10.4333 4.87695 10.7533 6.11362 10.86 7.31362C11.4733 6.91362 12.18 6.57028 12.98 6.28362C13.78 5.99695 14.5333 5.85362 15.24 5.85362H16V6.61362C16 8.16028 15.7633 9.51695 15.29 10.6836C14.8167 11.8503 14.2 12.8303 13.44 13.6236C12.68 14.417 11.8233 15.037 10.87 15.4836C9.91667 15.9303 8.96 16.207 8 16.3136ZM8.16 15.0936C8.01333 12.6136 7.29667 10.7336 6.01 9.45362C4.72333 8.17362 3.12667 7.38028 1.22 7.07362C1.39333 9.64695 2.14333 11.567 3.47 12.8336C4.79667 14.1003 6.36 14.8536 8.16 15.0936ZM7.98 10.1936C8.16667 9.84695 8.42333 9.47362 8.75 9.07362C9.07667 8.67362 9.39333 8.34028 9.7 8.07362C9.76667 7.16695 9.63333 6.24695 9.3 5.31362C8.96667 4.38028 8.53333 3.41362 8 2.41362C7.46667 3.41362 7.03333 4.38028 6.7 5.31362C6.36667 6.24695 6.23333 7.16695 6.3 8.07362C6.60667 8.34028 6.91667 8.67362 7.23 9.07362C7.54333 9.47362 7.79333 9.84695 7.98 10.1936V10.1936ZM9.36 14.7536C9.98667 14.527 10.61 14.227 11.23 13.8536C11.85 13.4803 12.41 12.9936 12.91 12.3936C13.41 11.7936 13.83 11.057 14.17 10.1836C14.51 9.31028 14.7133 8.27362 14.78 7.07362C13.3667 7.30028 12.12 7.80362 11.04 8.58362C9.96 9.36362 9.16667 10.327 8.66 11.4736C8.82 11.9803 8.96 12.4903 9.08 13.0036C9.2 13.517 9.29333 14.1003 9.36 14.7536Z" fill="currentColor"/>
</svg>
