<svg width="24" height="17" viewBox="0 0 24 17" fill="none" xmlns="http://www.w3.org/2000/svg">
<path d="M4.50006 4.14685C5.60463 4.14685 6.50006 3.25142 6.50006 2.14685C6.50006 1.04228 5.60463 0.146851 4.50006 0.146851C3.39549 0.146851 2.50006 1.04228 2.50006 2.14685C2.50006 3.25142 3.39549 4.14685 4.50006 4.14685Z" fill="currentColor"/>
<path d="M0.200059 4.54685C0.53143 4.10502 1.15823 4.01548 1.60006 4.34685L9.3334 10.1469H23.0001C23.5523 10.1469 24.0001 10.5946 24.0001 11.1469C24.0001 11.6991 23.5523 12.1469 23.0001 12.1469H22.0001V15.1469C22.0001 15.6991 21.5523 16.1469 21.0001 16.1469C20.4478 16.1469 20.0001 15.6991 20.0001 15.1469V12.1469H4.00006V15.1469C4.00006 15.6991 3.55234 16.1469 3.00006 16.1469C2.44777 16.1469 2.00006 15.6991 2.00006 15.1469V12.1469H1.00006C0.447774 12.1469 5.91244e-05 11.6991 5.91244e-05 11.1469C5.91244e-05 10.5946 0.447774 10.1469 1.00006 10.1469H6.00006L0.400059 5.94685C-0.0417689 5.61548 -0.131312 4.98868 0.200059 4.54685Z" fill="currentColor"/>
<path fill-rule="evenodd" clip-rule="evenodd" d="M6.73184 4.00666C7.0854 3.58238 7.71597 3.52506 8.14024 3.87862L10.8621 6.14684H11.5859L15.293 2.43974C15.6835 2.04922 16.3166 2.04922 16.7072 2.43974L20.4143 6.14684H22.0001C22.5523 6.14684 23.0001 6.59456 23.0001 7.14684C23.0001 7.69913 22.5523 8.14685 22.0001 8.14685H10.5001C10.2661 8.14685 10.0396 8.06483 9.85987 7.91507L6.85987 5.41507C6.4356 5.0615 6.37827 4.43094 6.73184 4.00666ZM17.5858 6.14684L16.0001 4.56106L14.4143 6.14684H17.5858Z" fill="currentColor"/>
</svg>
