<svg width="97" height="35" viewBox="0 0 97 35" fill="none" xmlns="http://www.w3.org/2000/svg">
<path d="M17.4247 35C27.0482 35 34.8495 27.165 34.8495 17.5C34.8495 7.83502 27.0482 0 17.4247 0C7.80132 0 0 7.83502 0 17.5C0 27.165 7.80132 35 17.4247 35Z" fill="#101926"/>
<path d="M44.8068 13.4416C45.3564 13.4741 45.8898 13.263 46.2777 12.8734C46.6333 12.4189 46.8111 11.8345 46.7465 11.25V4.28576H49.8984V11.25C49.9793 12.5812 49.4782 13.8799 48.5407 14.8052C47.5062 15.6819 46.1646 16.1364 44.8068 16.0552C43.449 16.1364 42.1074 15.6819 41.0729 14.8052C40.1031 13.8799 39.5697 12.5812 39.6343 11.25V4.28576H42.7863V11.25C42.754 11.8345 42.9318 12.4026 43.3035 12.8572C43.6915 13.263 44.2411 13.4741 44.8068 13.4416ZM56.1701 16.0715C55.2649 16.0715 54.3597 15.9091 53.503 15.5845C52.6786 15.276 51.9028 14.8052 51.2562 14.2046L52.7756 12.2728C53.2282 12.6786 53.7293 13.0033 54.295 13.2306C54.8931 13.4741 55.5235 13.5877 56.1539 13.5877C56.5257 13.6039 56.8974 13.5228 57.2207 13.3442C57.4632 13.1981 57.6248 12.9221 57.6086 12.6299C57.6086 12.3215 57.4308 12.0293 57.1561 11.8994C56.655 11.6072 56.1054 11.3961 55.5397 11.25L54.8284 11.0552C53.9394 10.8604 53.1312 10.4384 52.4685 9.80524C51.9189 9.23706 51.628 8.45784 51.6603 7.66238C51.6603 6.9968 51.8704 6.33121 52.2584 5.7955C52.6625 5.24355 53.2121 4.80524 53.8586 4.5455C54.6022 4.23706 55.4103 4.07472 56.2024 4.09095C57.0591 4.09095 57.8996 4.25329 58.6916 4.57797C59.4675 4.88641 60.1949 5.30849 60.8253 5.86044L59.2574 7.84096C58.8209 7.46758 58.336 7.15914 57.8188 6.93186C57.3177 6.68836 56.752 6.54225 56.1862 6.54225C55.8306 6.52602 55.4588 6.59095 55.1356 6.76953C54.8769 6.8994 54.7153 7.1916 54.7315 7.48381C54.7476 7.75978 54.8769 8.01953 55.1194 8.18187C55.5235 8.44161 55.9923 8.63641 56.461 8.73381L57.3177 8.97732C58.3037 9.18836 59.225 9.67537 59.9363 10.3734C60.4373 10.9416 60.7121 11.6721 60.7121 12.4351C60.7283 13.1169 60.5182 13.7987 60.1464 14.3669C59.7423 14.9189 59.1765 15.3572 58.5462 15.6169C57.8026 15.9416 56.9944 16.0877 56.1701 16.0715ZM70.265 15.8442L69.5376 13.75H65.238L64.5107 15.9091H61.4072L65.626 4.35069H69.279L73.4332 15.8442H70.265ZM65.9492 11.3474H68.681L67.3878 7.30524L65.9492 11.3474ZM43.0449 30.6656V21.6559H39.6182V19.1559H49.5752V21.6559H46.1969V30.6656H43.0449ZM56.2024 30.8767C55.1356 30.8929 54.0687 30.6332 53.1312 30.1137C52.2584 29.6104 51.531 28.8799 51.0299 27.9871C50.4965 27.0455 50.2217 25.9741 50.254 24.8864C50.2379 24.0747 50.3834 23.2468 50.6743 22.4838C50.9491 21.7695 51.3855 21.1202 51.9189 20.5845C52.4523 20.0487 53.0989 19.6267 53.8101 19.3345C55.3457 18.75 57.0429 18.75 58.5785 19.3345C59.2897 19.6267 59.9201 20.0487 60.4697 20.5845C61.0031 21.1202 61.4395 21.7695 61.7143 22.4838C62.0376 23.2468 62.2154 24.0585 62.2315 24.8864C62.2477 25.9741 61.9891 27.0455 61.4557 27.9871C60.9546 28.8799 60.211 29.5942 59.322 30.0975C58.3683 30.6332 57.2854 30.9091 56.2024 30.8767ZM56.2024 28.2793C56.7196 28.2955 57.2207 28.1494 57.641 27.8572C58.0612 27.565 58.4007 27.1429 58.6108 26.6721C58.8533 26.1202 58.9826 25.5195 58.9664 24.9026C58.9826 24.302 58.8533 23.7013 58.6108 23.1332C58.4007 22.6299 58.0774 22.2078 57.641 21.8832C56.7681 21.2987 55.6205 21.2987 54.7476 21.8832C54.3112 22.2078 53.9879 22.6299 53.7778 23.1332C53.5353 23.6851 53.406 24.2858 53.4222 24.9026C53.406 25.5033 53.5353 26.1039 53.7778 26.6721C53.9879 27.1429 54.3274 27.565 54.7476 27.8572C55.1679 28.1332 55.6851 28.2793 56.2024 28.2793ZM63.9772 30.6656V19.1072H68.5193C69.57 19.091 70.6206 19.3345 71.542 19.8377C72.3987 20.3085 73.1099 21.0228 73.5948 21.8669C74.5808 23.75 74.5808 25.9903 73.5948 27.8572C73.1099 28.7176 72.3987 29.4156 71.542 29.8864C70.6206 30.3897 69.57 30.6494 68.5193 30.6169L63.9772 30.6656ZM67.0807 28.1656H68.5193C69.279 28.1981 70.0064 27.8572 70.4752 27.2728C70.9762 26.591 71.2349 25.7468 71.2025 24.9026C71.2349 24.0585 70.9762 23.2143 70.4752 22.5325C70.0064 21.9319 69.279 21.6072 68.5193 21.6397H67.0807V28.1656ZM83.6164 30.6656L82.8891 28.5065H78.5733L77.8459 30.6656H74.7424L78.9612 19.1072H82.6143L86.8331 30.6656H83.6164ZM79.3815 26.1526H82.1294L80.7716 22.1104L79.3815 26.1526ZM92.9107 26.4936V30.6494H89.7103V26.4936L85.6369 19.091H89.193L91.3267 23.7338L93.4441 19.1559H97.0002L92.9107 26.4936Z" fill="#101926"/>
</svg>
