<svg width="24" height="24" viewBox="0 0 24 24" fill="none" xmlns="http://www.w3.org/2000/svg">
<path fill-rule="evenodd" clip-rule="evenodd" d="M12 7C6.47715 7 2 11.4772 2 17C2 17.5523 1.55228 18 1 18C0.447715 18 0 17.5523 0 17C0 10.3726 5.37258 5 12 5C18.6274 5 24 10.3726 24 17C24 17.5523 23.5523 18 23 18C22.4477 18 22 17.5523 22 17C22 11.4772 17.5228 7 12 7ZM8 16C8 15.4477 8.44771 15 9 15H15C15.5523 15 16 15.4477 16 16C16 16.5523 15.5523 17 15 17H9C8.44771 17 8 16.5523 8 16ZM9 11C8.44771 11 8 11.4477 8 12C8 12.5523 8.44771 13 9 13H15C15.5523 13 16 12.5523 16 12C16 11.4477 15.5523 11 15 11H9Z" fill="currentColor"/>
</svg>
