<svg width="60" height="20" viewBox="0 0 60 20" fill="none" xmlns="http://www.w3.org/2000/svg">
<g opacity="0.8" clip-path="url(#clip0_2004_1588)">
<path d="M4.61455 0.246255H12.2761L8.25569 13.496C7.97349 14.4255 8.57222 15.1921 9.55859 15.1921C10.5453 15.1921 11.561 14.4255 11.8428 13.496L15.8633 0.246255L22.6572 0.246094L18.015 17.1835C17.6053 18.6775 15.9771 19.9004 14.3967 19.9004H2.6423C0.764152 19.9004 -0.374284 18.4476 0.112539 16.6711L4.61455 0.246255Z" fill="currentColor"/>
<path d="M31.1788 7.4834V7.48356H39.0465L37.6173 12.0712H29.7469L27.5621 19.9001H20.1655L23.7822 7.4834H31.1788Z" fill="currentColor"/>
<path d="M46.4868 0.046875H56.4927C57.9563 0.046875 60.4408 1.19632 59.9324 3.02425L59.7321 3.74394H50.8033C50.3447 3.74394 49.8675 4.10441 49.7435 4.54474L46.9686 14.3942C46.8446 14.8346 47.1183 15.1949 47.577 15.1949H56.5463L55.896 17.5321C55.5196 18.8861 54.0353 20 52.5723 20H42.0091C40.1473 20 39.0035 18.5869 39.4675 16.8603L43.3633 2.36558C43.706 1.09015 45.1116 0.046875 46.4868 0.046875Z" fill="currentColor"/>
<path d="M39.836 4.80585H31.9845L31.9805 4.81908H24.584L26.007 0C31.089 0 36.171 0 41.2525 0L39.836 4.80585Z" fill="currentColor"/>
</g>
<defs>
<clipPath id="clip0_2004_1588">
<rect width="60" height="20" fill="white"/>
</clipPath>
</defs>
</svg>
