<svg xmlns="http://www.w3.org/2000/svg" viewBox="0 0 211 32">
  <g fill="currentColor" fill-rule="evenodd">
    <path
      d="m17.342 11.162-5.455 20.542H4.963L.148.26h6.729l2.225 19.131.085.011c.043-.128.093-.256.128-.386C10.957 12.905 12.602 6.795 14.232.68c.092-.339.218-.471.587-.467 1.685.022 3.372.018 5.058.003.35-.004.5.092.598.452 1.656 6.107 3.33 12.212 5.002 18.316.038.14.09.279.216.416.077-.603.157-1.205.226-1.809.414-3.59.825-7.183 1.239-10.774.24-2.087.489-4.174.725-6.261.025-.217.07-.338.324-.337 2.087.008 4.175.008 6.263.012.042 0 .087.027.184.057l-4.815 31.436h-.705c-1.917 0-3.836-.012-5.754.01-.367.005-.5-.122-.59-.455-1.761-6.56-3.532-13.115-5.302-19.672-.027-.102-.066-.201-.146-.445ZM60.998 31.735c-.165.008-.3-.008-.433-.008-2.042 0-4.084-.009-6.127.008-.332.002-.481-.094-.581-.417-.56-1.814-1.148-3.618-1.71-5.432-.092-.297-.216-.415-.544-.413-2.955.012-5.91.012-8.864.002-.3-.002-.427.095-.513.387-.531 1.807-1.087 3.607-1.636 5.409-.044.143-.094.287-.143.437h-7.01c.448-1.378.885-2.726 1.325-4.074C37.688 18.702 40.62 9.771 43.528.831c.16-.496.38-.624.87-.618 1.949.029 3.898.016 5.847.006.277 0 .445.049.544.351 3.372 10.285 6.752 20.564 10.13 30.845.028.085.047.203.08.32Zm-13.75-22.58a1.328 1.328 0 0 0-.09-.006l-2.762 10.219h5.612l-2.76-10.213ZM139.62 31.704c-.165.011-.3.023-.434.023-2.043 0-4.084-.008-6.125.008-.334.003-.484-.093-.583-.416-.558-1.814-1.148-3.619-1.71-5.433-.093-.296-.217-.414-.546-.412-2.953.012-5.909.012-8.863.002-.3-.002-.425.094-.511.387-.533 1.806-1.088 3.606-1.638 5.409-.044.143-.093.287-.142.437h-7.01c.448-1.378.884-2.726 1.325-4.074 2.926-8.932 5.857-17.864 8.766-26.803.161-.496.38-.625.87-.619 1.948.029 3.899.016 5.847.006.278 0 .445.049.545.351 3.37 10.285 6.752 20.564 10.13 30.845.027.085.047.173.08.29ZM125.87 9.155a1.335 1.335 0 0 0-.09-.006c-.919 3.399-1.839 6.8-2.762 10.219h5.61c-.925-3.432-1.842-6.822-2.758-10.213ZM81.68 19.976l5.551 11.718c-.171.012-.3.031-.427.031-2.227.002-4.454-.006-6.681.01-.329.003-.485-.103-.623-.399-1.675-3.561-3.372-7.114-5.04-10.681-.182-.389-.373-.55-.816-.536-1.176.035-2.352.01-3.528.01h-.542v11.567h-6.84V.226h.501c5.583 0 11.167-.002 16.75 0 3.198.002 5.391 2.197 5.392 5.39.001 3.078.007 6.154 0 9.233-.007 2.346-1.251 4.147-3.437 5.007-.07.027-.137.064-.26.12Zm-12.084-6.12c.13.011.234.032.338.034 2.658 0 5.315.003 7.974-.002.502 0 .653-.16.655-.675.004-2.01.004-4.019 0-6.026 0-.58-.128-.703-.71-.704h-7.835c-.136 0-.27.016-.422.024v7.348ZM90.75 31.735V.301h19.484V6.52H97.637v5.962h11.643v6.293H97.63v6.715h12.677v6.245H90.75ZM190.752 31.735V.301h19.483V6.52H197.64v5.962h11.642v6.293h-11.65v6.715h12.676v6.245h-19.555ZM167.936 31.735V.285c.173-.008 4.371-.011 6.321-.033.428-.005.54.121.54.545-.013 8.014-.01 16.026-.01 24.038v.64h12.449v6.26h-19.3ZM141.622 31.735V.258c.166-.01.316-.024.465-.024 5.197-.003 10.39-.007 15.586.002 2.523.002 4.476 1.584 4.967 4.009.06.3.081.615.081.922.008 2.381.014 4.762 0 7.143-.007 1.354-.726 2.285-1.855 2.947-.12.07-.243.13-.33.175.452.293.943.548 1.363.893.636.523.991 1.228.994 2.063.01 2.937.047 5.875-.017 8.811-.048 2.196-1.912 4.152-4.088 4.448-.396.053-.8.083-1.2.084-5.117.006-10.235.004-15.354.004h-.612Zm6.873-6.163c.095.02.138.037.183.037 2.271.002 4.545.006 6.816 0 .45 0 .604-.179.604-.677.005-1.855.003-3.71.002-5.564-.001-.6-.128-.727-.737-.727-2.15-.002-4.298-.001-6.446 0-.135 0-.269.018-.422.029v6.902Zm.005-19.24v6.48c.113.014.201.034.29.034 2.178 0 4.356-.001 6.534.003.438.002.598-.21.594-.632-.009-1.685-.003-3.368-.005-5.05 0-.682-.155-.834-.851-.834-1.993-.002-3.985-.001-5.978-.001h-.584Z"
    />
  </g>
</svg>
