<svg width="82" height="23" viewBox="0 0 82 23" fill="none" xmlns="http://www.w3.org/2000/svg">
<g clip-path="url(#clip0_1550_4080)">
<path d="M14.843 16.9904C15.0973 17.9577 15.5076 18.3317 16.2327 18.3317C16.9845 18.3317 17.3786 17.8775 17.3786 16.9904V0.51929H22.0875V16.9904C22.0875 19.3121 21.7881 20.318 20.6176 21.4955C19.7741 22.3441 18.2182 23 16.2535 23C14.6663 23 13.1475 22.4716 12.1789 21.4957C11.3297 20.64 10.8632 19.7611 10.1342 16.9902L7.24473 6.00965C6.99028 5.04231 6.58012 4.66842 5.855 4.66842C5.1031 4.66842 4.70891 5.12247 4.70891 6.00965V22.4809H0V6.00965C0 3.68809 0.299632 2.68197 1.47008 1.50448C2.31331 0.656253 3.8694 0 5.83419 0C7.42141 0 8.94022 0.52854 9.90882 1.50432C10.758 2.36001 11.2245 3.23891 11.9535 6.00981L14.843 16.9904Z" fill="currentColor"/>
<path d="M77.1327 22.4809L71.6944 5.37076C71.6344 5.18186 71.5778 5.02153 71.4907 4.91459C71.3412 4.7317 71.1346 4.63564 70.8564 4.63564C70.5784 4.63564 70.3717 4.7317 70.2221 4.91459C70.1351 5.02137 70.0783 5.1817 70.0185 5.37076L64.5804 22.4809H59.7129L65.6531 3.79017C65.9626 2.8165 66.405 1.98985 66.9663 1.43908C67.9298 0.494461 69.065 0 70.8565 0C72.648 0 73.7835 0.494461 74.7466 1.43892C75.3079 1.98985 75.7504 2.81634 76.06 3.79L82 22.4807H77.1327V22.4809Z" fill="currentColor"/>
<path d="M53.0651 22.4809C56.1502 22.4809 57.6549 21.8217 58.8438 20.6327C60.1593 19.3174 60.7886 17.8783 60.7886 15.7298C60.7886 13.8313 60.0975 12.0728 59.0453 11.0206C57.6696 9.64467 55.9609 9.21107 53.1747 9.21107L49.272 9.21091C47.7808 9.21091 47.1866 9.02964 46.7164 8.56504C46.3935 8.24632 46.2422 7.77231 46.2422 7.21359C46.2422 6.63604 46.3804 6.06563 46.7751 5.676C47.1254 5.33019 47.6028 5.17148 48.5203 5.17148H59.7993V0.51929H49.3818C46.2967 0.51929 44.7921 1.17863 43.6031 2.36748C42.2877 3.68274 41.6583 5.12166 41.6583 7.27022C41.6583 9.16904 42.3494 10.9273 43.4015 11.9794C44.7774 13.3553 46.486 13.7891 49.2722 13.7891L53.175 13.7894C54.6662 13.7894 55.2605 13.9704 55.7307 14.4351C56.0535 14.754 56.2049 15.2279 56.2049 15.7866C56.2049 16.3641 56.0666 16.9345 55.6721 17.3242C55.3216 17.67 54.8442 17.8287 53.9267 17.8287H42.2942L37.8326 3.79017C37.5232 2.8165 37.0807 1.98985 36.5194 1.43908C35.5559 0.494461 34.4207 0 32.6292 0C30.8377 0 29.7022 0.494461 28.7393 1.43892C28.1778 1.98985 27.7355 2.81634 27.426 3.79L21.4858 22.4807H26.3532L31.7914 5.37059C31.8514 5.1817 31.9081 5.02137 31.9952 4.91443C32.1446 4.73154 32.3515 4.63547 32.6295 4.63547C32.9075 4.63547 33.1142 4.73154 33.2638 4.91443C33.3509 5.02121 33.4075 5.18154 33.4674 5.37059L38.9056 22.4807H53.0651V22.4809Z" fill="currentColor"/>
</g>
<defs>
<clipPath id="clip0_1550_4080">
<rect width="82" height="23" fill="currentColor"/>
</clipPath>
</defs>
</svg>
