<svg width="24" height="24" viewBox="0 0 24 24" fill="none" xmlns="http://www.w3.org/2000/svg">
<path fill-rule="evenodd" clip-rule="evenodd" d="M12 0C12.5523 0 13 0.447715 13 1V7.25C13 8.76878 14.2312 10 15.75 10H17C17.5523 10 18 10.4477 18 11C18 11.5523 17.5523 12 17 12H15.75C14.2257 12 12.8692 11.282 12 10.1658C11.1308 11.282 9.77427 12 8.25 12H7C6.44772 12 6 11.5523 6 11C6 10.4477 6.44772 10 7 10H8.25C9.76878 10 11 8.76878 11 7.25V1C11 0.447715 11.4477 0 12 0ZM6.12043 3C4.41756 3 2.92537 4.13973 2.47731 5.7826L0.616632 12.6051C0.207371 14.1057 0 15.6542 0 17.2096V19.6667C0 22.0599 1.9401 24 4.33333 24H4.43576C5.73523 24 6.95886 23.3882 7.73854 22.3486L7.85832 22.1889C8.03716 21.9505 8.27813 21.7658 8.55487 21.6551C10.0433 21.0597 10.9639 19.5575 10.8188 17.961L10.4959 14.4095C10.4459 13.8594 9.95948 13.4541 9.40946 13.5041C8.85945 13.5541 8.45411 14.0405 8.50411 14.5905L8.82698 18.1421C8.89204 18.8578 8.47932 19.5312 7.81209 19.7981C7.19477 20.0451 6.65725 20.457 6.25832 20.9889L6.13854 21.1486C5.73657 21.6846 5.10571 22 4.43576 22H4.33333C3.04467 22 2 20.9553 2 19.6667V17.2096C2 15.832 2.18367 14.4605 2.54616 13.1313L4.40684 6.30884C4.61759 5.53609 5.31946 5 6.12043 5C6.84672 5 7.49984 5.44218 7.76958 6.11652L8.07152 6.87139C8.27664 7.38417 8.85861 7.63359 9.37139 7.42848C9.88417 7.22336 10.1336 6.64139 9.92848 6.12861L9.62653 5.37374C9.05307 3.94008 7.66453 3 6.12043 3ZM17.8796 3C19.5824 3 21.0746 4.13973 21.5227 5.7826L23.3834 12.6051C23.7926 14.1057 24 15.6542 24 17.2096V19.6667C24 22.0599 22.0599 24 19.6667 24H19.5642C18.2648 24 17.0411 23.3882 16.2615 22.3486L16.1417 22.1889C15.9628 21.9505 15.7219 21.7658 15.4451 21.6551C13.9567 21.0597 13.0361 19.5575 13.1812 17.961L13.5041 14.4095C13.5541 13.8594 14.0405 13.4541 14.5905 13.5041C15.1406 13.5541 15.5459 14.0405 15.4959 14.5905L15.173 18.1421C15.108 18.8578 15.5207 19.5312 16.1879 19.7981C16.8052 20.0451 17.3428 20.457 17.7417 20.9889L17.8615 21.1486C18.2634 21.6846 18.8943 22 19.5642 22H19.6667C20.9553 22 22 20.9553 22 19.6667V17.2096C22 15.832 21.8163 14.4605 21.4538 13.1313L19.5932 6.30884C19.3824 5.53609 18.6805 5 17.8796 5C17.1533 5 16.5002 5.44218 16.2304 6.11652L15.9285 6.87139C15.7234 7.38417 15.1414 7.63359 14.6286 7.42848C14.1158 7.22336 13.8664 6.64139 14.0715 6.12861L14.3735 5.37374C14.9469 3.94008 16.3355 3 17.8796 3Z" fill="currentColor"/>
</svg>
