<svg width="60" height="35" viewBox="0 0 60 35" fill="none" xmlns="http://www.w3.org/2000/svg">
<g opacity="0.8" clip-path="url(#clip0_2004_1593)">
<path d="M3.60167 0H11.8229C13.8182 0 15.4245 1.58006 15.4245 3.54274V30.8835C15.4245 32.8462 13.8182 34.4262 11.8229 34.4262H3.60167C1.60635 34.4262 0 32.8462 0 30.8835V3.54274C0 1.58006 1.60635 0 3.60167 0Z" fill="white"/>
<path d="M9.78047 6.31079L9.7919 6.42724C10.0399 6.57142 10.1696 6.68787 10.4232 6.84868C11.0884 7.26456 11.906 8.00207 11.8045 10.5362C11.996 11.0907 12.0807 12.172 12.2498 12.5158C12.5938 13.1979 12.8305 13.6415 12.9319 14.2792C12.9319 14.2792 13.0335 15.2773 13.1631 15.3494C13.8507 15.5047 13.6536 15.5712 13.7494 15.6932C13.8564 15.8263 14.2566 15.8208 14.2566 16.1867C14.3977 16.3697 14.5048 16.5527 14.578 16.7523V3.57148C14.578 2.0632 13.3377 0.843262 11.8099 0.843262H9.16592C9.58872 0.992981 9.83113 1.17043 9.97214 1.44768C10.3102 1.47541 10.7107 2.22401 10.0848 3.33859C10.361 3.52712 10.1467 3.80438 9.94944 4.12045C9.88742 4.22027 9.82541 4.40326 9.63938 4.39217C9.39133 4.89678 9.10375 5.37366 8.88405 5.40139C8.82211 5.47902 8.77686 5.69528 8.87269 5.79509C9.19426 5.93927 9.58308 6.1278 9.78047 6.31079Z" fill="currentColor"/>
<path d="M12.2503 33.5477L12.2222 33.5533C13.4342 32.8269 12.6844 31.4518 12.4534 30.6422L12.4984 30.5034C12.5604 30.3925 12.4308 30.1319 12.4308 30.1319C12.2787 30.0099 12.2448 29.3335 12.1658 29.023C12.0363 28.5184 12.3969 27.6367 12.3969 27.3372C12.3969 27.0376 12.1658 26.6274 11.7487 26.1062C11.6471 25.9898 11.3427 23.4334 11.0721 22.7847C10.6944 21.8918 10.5816 22.0359 10.1307 20.9658C9.78679 20.2172 10.0574 19.1138 9.2795 16.5519L9.45418 16.3911C9.45418 16.3911 8.83407 14.1619 8.63104 13.552C8.43366 12.942 8.06738 12.9032 8.06738 12.9032L8.08985 12.5871C8.11812 12.4928 8.84527 10.6352 8.90728 10.5742C8.91284 10.5354 9.95583 9.83115 9.97267 9.93651C10.0571 10.3912 10.4631 12.7035 10.6378 13.0695C10.8126 13.4411 11.4159 14.5723 11.6921 15.2765C10.6153 15.5371 9.8091 16.4964 9.8091 17.6333C9.8091 18.9752 10.9141 20.0675 12.2784 20.0675C13.3211 20.0675 14.2233 19.4299 14.584 18.5316L14.5783 30.8586C14.5786 32.2225 13.5808 33.3481 12.2503 33.5477Z" fill="currentColor"/>
<path d="M8.29849 0.843262C7.3965 1.18706 7.27248 1.56968 7.23873 2.8007C7.08652 2.81734 6.77075 2.67317 6.87794 3.42176C6.87794 3.42176 6.93431 3.92083 7.13726 3.83765C6.97941 4.9245 7.10484 5.19652 6.37065 5.27385C6.2128 5.29048 6.02106 5.30157 5.78436 5.31266L5.71108 5.41248C4.70762 5.50675 4.21059 5.44367 3.56315 6.28307C3.31511 6.60469 3.05015 7.05939 2.72318 7.70818C2.72318 7.70818 2.4244 8.43459 2.33412 8.73403C2.04661 9.32736 1.34194 10.6416 1.13335 11.4844C1.06578 11.7728 0.936045 11.8615 1.12208 12.2774C1.39831 12.8763 0.941683 13.0315 2.50888 12.9872V13.3421C2.50888 13.3421 2.09171 13.697 2.00151 13.9077C1.91695 14.1239 1.67454 15.1831 1.6859 15.6877C1.71401 17.0019 2.8021 18.0997 3.12336 19.4085L3.85058 19.5084C4.2452 20.4011 5.97024 22.8076 6.37057 23.1958C6.37621 23.2014 6.38185 23.207 6.38749 23.2125C6.47761 23.4398 6.92304 23.7227 7.18228 24.0055C7.34021 24.1552 8.06751 24.9315 9.03706 25.6691C9.393 25.9398 9.77572 26.2069 10.1758 26.4344C10.1645 26.4287 10.4126 26.9168 10.5366 27.316C10.0405 27.7096 11.0045 28.4306 11.2977 29.6228C11.3146 29.7835 11.0157 29.9444 11.4611 30.3381C11.433 32.1401 10.8749 33.083 11.8107 33.5819H3.56315C2.06368 33.5486 0.851562 32.3399 0.851562 30.8592V3.57148C0.851562 2.07983 2.0636 0.876533 3.56315 0.843262H8.29849Z" fill="currentColor"/>
<path fill-rule="evenodd" clip-rule="evenodd" d="M19.5732 0.827637V33.5438H23.168C23.1774 25.1185 23.3716 16.6593 22.8446 8.33258L26.9889 33.5438H32.1469V0.827637H28.5874C28.5149 9.50206 28.828 18.0553 29.426 26.519L25.1196 0.827637H19.5732Z" fill="currentColor"/>
<path fill-rule="evenodd" clip-rule="evenodd" d="M50.7359 0.804688L47.2026 33.5484H51.5986L52.1738 26.9273H55.0497L55.6249 33.5484H60.0003L56.5698 0.804688H50.7359ZM53.6117 10.047L54.721 23.0857H52.5025L53.6117 10.047Z" fill="currentColor"/>
<path d="M34.9185 0.827165V33.5256H41.3481C42.402 33.5256 45.9906 32.6197 45.9906 28.0797V21.549C45.9906 20.8609 45.9965 18.7037 44.0802 17.4363C45.2776 17.4363 45.9906 15.1513 45.9906 13.075V6.06977C45.9906 3.34033 44.2635 0.819738 40.7935 0.827165H34.9185ZM38.8831 5.00769H40.8346C41.7285 5.00769 42.026 5.97847 42.026 6.72509V14.3404C42.026 15.643 41.5906 15.7415 40.6908 15.7415H38.8831V5.00769ZM38.8831 19.3119H40.8346C41.7285 19.3119 42.026 20.2826 42.026 21.0293V27.8311C42.026 28.7173 41.5768 29.3903 40.6908 29.3903L38.8831 29.4129V19.3118V19.3119Z" fill="currentColor"/>
</g>
<defs>
<clipPath id="clip0_2004_1593">
<rect width="60" height="34.4262" fill="white"/>
</clipPath>
</defs>
</svg>
