<svg width="82" height="40" viewBox="0 0 82 40" fill="none" xmlns="http://www.w3.org/2000/svg">
<g clip-path="url(#clip0_1550_4088)">
<path d="M30.8836 16.9372H34.3573L30.9541 27.7032H26.6034L24.5333 20.1248L22.3579 27.7032H18.0776L14.6745 16.9372H18.1481L20.253 24.5156L22.3579 16.9372H26.7087L28.8135 24.5156L30.8836 16.9372ZM15.4472 4.5778C15.5525 4.18872 15.9032 3.6573 16.0432 3.23216C16.1485 2.8782 16.1138 2.63052 15.9727 2.55934C16.078 1.39116 15.2714 0.293205 14.1132 0.044575C12.8507 -0.203106 11.5872 0.61111 11.3418 1.88652C11.0965 3.16194 11.9031 4.40129 13.1665 4.68408C13.3423 4.7192 13.5172 4.7192 13.693 4.7192C13.7635 4.75431 13.8688 4.79037 13.9036 4.86059C14.0089 4.96688 14.0794 5.35596 13.9741 5.53341C13.9036 5.71087 13.4129 6.24134 12.8516 6.84394C12.2904 7.44559 12.1146 7.51676 11.6238 8.08329C11.3785 8.36609 11.308 8.721 11.308 8.721C11.308 8.721 10.852 8.96868 10.5362 9.42893C10.2203 9.85407 9.79912 10.7395 9.79912 10.7395C9.79912 10.7395 9.44846 10.952 9.23788 11.0934C9.06208 11.2709 8.92201 11.3772 8.64186 11.7311C8.64186 11.4123 8.74715 11.2709 8.95773 11.1295C9.09781 11.0232 9.30839 10.4918 9.34411 9.85502C9.6252 9.71362 9.83484 9.39477 9.83484 9.0408C9.83484 8.54544 9.41368 8.1203 8.92295 8.1203C8.71237 8.1203 8.53657 8.19147 8.39649 8.29776C8.04584 8.1203 7.58989 8.05008 7.06344 8.15636C6.88764 8.19147 6.71278 8.26265 6.678 8.40404C6.57271 8.43916 6.39691 8.51033 6.18727 8.82918C5.9419 9.18315 6.04719 9.43083 6.01147 9.53711C5.97574 9.6434 5.5903 9.85597 5.7661 10.6702C5.83661 10.989 5.80089 11.2367 5.83661 11.343C5.87139 11.4844 5.90712 11.5556 6.04719 11.5907C6.1177 11.6258 6.22299 11.6619 6.29256 11.697C6.43263 11.7321 6.46835 11.7681 6.50314 11.9095V12.1572C6.50314 12.1923 6.46835 12.2635 6.43263 12.2635L5.55552 12.2986C5.02907 12.2635 4.74892 12.44 4.74892 12.44C4.74892 12.44 4.22246 12.4751 3.87181 12.6877C3.52115 12.9003 3.0652 13.4668 2.95991 13.9622C2.8894 14.1747 2.85462 14.3161 2.74933 14.4936C2.67882 14.5999 2.36295 14.8124 2.11758 15.0601C1.97751 14.5287 1.76693 13.891 1.76693 13.4307V13.3244C1.76693 13.1831 1.76693 13.0407 1.83743 12.8993C1.97751 12.6867 2.0828 12.4391 2.04802 12.1553C2.04802 11.9779 2.0828 11.7662 2.11852 11.5888C2.15331 11.4474 2.11852 11.3411 2.18903 11.2348C2.22381 11.1636 2.29432 11.0574 2.29432 10.9511C2.29432 10.9511 2.15425 10.9511 2.04896 10.9862C1.87316 11.0574 1.83837 11.2699 1.76787 11.4113C1.73308 11.5176 1.73308 11.659 1.66258 11.6951C1.59207 11.7302 1.48678 11.7302 1.41721 11.66C1.3467 11.5537 1.31192 11.4825 1.24141 11.3762C1.17091 11.2699 0.996047 10.5971 0.820249 10.2071C0.749742 10.1359 0.714958 10.0296 0.609667 9.99452C0.53916 9.9594 0.433869 10.0296 0.469593 10.1008C0.5401 10.3134 0.645391 10.5259 0.680175 10.7385C0.609667 10.5971 0.504377 10.4548 0.434809 10.3494C0.364302 10.2783 0.294735 10.172 0.189444 10.1369C0.118937 10.1017 0.0493694 10.1369 0.0136457 10.208C-0.0211379 10.2431 0.0484293 10.3143 0.0484293 10.3494C0.188504 10.5269 0.329518 10.7385 0.399086 10.9871C0.328578 10.916 0.259011 10.8457 0.15372 10.8097C0.118937 10.8097 0.0484293 10.8097 0.0136457 10.8448C0.0136457 10.8799 0.0136457 10.9511 0.0484293 10.9862L0.364302 11.4113C0.434809 11.5176 0.504377 11.659 0.574884 11.7653C0.574884 11.6941 0.469593 11.6941 0.469593 11.8004C0.5401 11.9418 0.714958 12.0481 0.750682 12.2255C0.890757 12.5795 0.855973 12.9695 0.821189 13.3937C0.786406 13.8189 0.855973 15.0582 0.750682 15.5896C0.574884 16.4399 0.610608 16.7588 0.821189 17.7144C0.92648 18.2809 1.48772 18.2809 1.90888 17.9981C2.61019 17.5379 3.34723 16.475 3.52303 16.2625C3.6631 16.085 3.76839 15.8022 3.87369 15.8373C4.11905 16.1211 4.29485 17.2892 4.08427 18.316C4.04948 18.5286 3.94419 18.9177 3.94419 19.024C3.97898 19.1302 4.08427 19.2014 4.08427 19.2365C4.04948 20.0156 3.52303 20.157 3.34723 20.9722C3.17143 21.7864 3.24194 22.3529 3.38201 23.1681C3.52209 23.9823 3.90847 24.7975 4.22434 25.3991C4.54022 26.0008 4.60978 26.4259 4.60978 26.4259L4.89087 26.461C4.89087 26.461 5.31204 28.1967 6.18915 29.5423C8.74997 33.4379 9.66281 35.1735 9.83766 35.5626C10.0135 35.9166 9.76716 35.9166 9.76716 36.094C9.76716 36.2715 9.90723 36.448 10.3284 36.7317C10.7843 37.0145 11.135 38.0062 11.3108 38.5376C11.4866 39.069 11.8372 40.0958 12.6091 39.9895C13.3809 39.8832 13.3809 38.8565 13.2408 38.2188C13.065 37.5811 12.4342 37.2622 12.3289 36.838C12.2236 36.448 11.8025 35.7752 11.7677 34.9609C11.7677 34.8547 11.7677 34.7484 11.8025 34.5709C11.8373 34.1107 12.0836 33.5081 12.0836 33.1541C12.0488 32.8001 11.1359 32.1624 10.9263 31.7734C10.7157 31.3833 10.5756 30.5691 10.5051 30.534C10.3998 30.4989 10.2946 30.4989 10.2946 30.4989C10.2946 30.4989 10.1545 27.8076 9.80382 26.7097C9.52273 25.8954 8.82142 25.1866 8.82142 25.1866C8.82142 25.1866 9.13729 24.5849 9.55845 23.0258C10.0492 21.1487 9.31309 20.2633 9.10251 19.2014C8.92671 18.3511 9.13729 17.0767 9.66375 15.8373C9.87433 15.342 10.2598 14.1017 10.2955 13.4649C10.2955 13.1812 10.4713 12.9695 10.7514 12.5795C11.0325 12.1904 11.2779 11.7653 11.3832 11.4104C11.4885 11.0564 11.7696 10.7024 12.1898 10.0999C12.4004 9.781 12.5057 9.49821 12.5057 9.49821C12.5057 9.49821 13.2775 8.7191 13.8387 7.94C14.5052 7.05461 14.6105 6.52319 14.6453 6.34668C14.6801 6.16922 14.9612 5.9576 15.1013 5.63875C15.2413 5.46129 15.3466 4.96593 15.4519 4.5759L15.4472 4.5778ZM65.7565 24.7292C65.7565 26.8539 64.0023 27.7042 61.3362 27.7042H51.9691V16.9381H60.4243C63.3367 16.9381 64.9499 17.7172 64.9499 19.7708C64.9499 21.0101 64.2486 21.719 63.4063 22.0369C63.3715 22.0369 63.3358 22.072 63.3358 22.1081C63.3358 22.1442 63.3706 22.1793 63.4063 22.1793C64.7394 22.3567 65.7565 23.2061 65.7565 24.7292ZM55.1259 21.1876H60.4234C61.3353 21.1876 61.6869 20.9039 61.6869 20.4797C61.6869 19.9483 61.3005 19.7006 60.4234 19.7006H55.1259V21.1876ZM62.4935 24.1626C62.4935 23.7375 62.1776 23.4547 61.3353 23.4547H55.1259V24.9417H61.3353C62.2124 24.9768 62.4935 24.658 62.4935 24.1626ZM81.9995 27.7042H78.211L76.9832 25.3669H71.0192L69.8262 27.7042H66.0724L71.8258 16.9381H76.1409L81.9995 27.7042ZM75.6492 22.7819L73.9655 19.5592L72.3165 22.7819H75.6492ZM46.1442 24.2338L40.1097 16.9742H35.6189V27.7402H38.7767V20.4446L44.7764 27.7042H49.2672V16.9381H46.0747V24.2338H46.1452H46.1442Z" fill="currentColor"/>
</g>
</svg>
