<svg width="77" height="22" viewBox="0 0 77 22" fill="currentColor" xmlns="http://www.w3.org/2000/svg">
<path d="M59.5558 0.044H76.6574V4.3505H76.3433L76.2063 1.6995H65.0032V10.307H74.5218L74.7902 8.305H75.1956C75.0586 10.1145 75.0586 11.9295 75.1956 13.739H74.7902L74.5218 11.6545H64.9975V20.5645H76.5889L76.6346 17.6055H76.9943V22H59.5101V21.3895H61.777V0.869H59.5101L59.5444 0.044H59.5558ZM35.3509 0H36.8698L44.1444 16.8245L51.3219 0H52.8008L56.8492 21.219H58.8991V21.8735H50.8308V21.219H52.9321L50.3855 7.656L43.9788 21.8735H42.5056L36.1332 7.656L33.4723 21.219H35.4308L35.3852 21.8735H29.481V21.219H31.2968L35.3509 0ZM20.7332 0.044H28.5046V0.6545H26.2776V21.219H28.5046V21.8735H20.7332V21.219H22.9658V0.6545H20.7161L20.7332 0.044ZM0.0114201 0.044H19.7739V4.3945H19.4598V1.6115H11.6713V21.219H13.9439V21.8735H6.18969V21.219H8.27386V1.6115H0.359733V4.3945H0L0.0114201 0.044Z" fill="#101926"/>
</svg>
