<svg width="60" height="17" viewBox="0 0 60 17" fill="none" xmlns="http://www.w3.org/2000/svg">
<g opacity="0.8">
<path d="M40.6 3.31818C39.5353 3.31818 38.7146 3.70418 37.9529 4.50932V3.50625H35.8623V13.3802H38.1122V7.65375C38.1122 6.3426 38.8801 5.51328 40.0443 5.51328C40.2557 5.51328 40.4415 5.54015 40.5736 5.56612L42.1349 3.47939C41.5264 3.37102 40.9972 3.31818 40.6 3.31818ZM60 3.50536H57.4057L55.0104 6.72592L52.6151 3.50536H50.0208L53.6807 8.48128L50.0208 13.3802H52.6671L54.9963 10.2563L57.3256 13.3802H59.9991L56.3164 8.48844L60 3.50536ZM12.7575 1.28428C11.9896 2.32765 11.8047 2.67514 11.0632 2.67514H0V16.0544H4.34056C5.31981 16.0544 6.27264 15.5726 6.88115 14.7701C7.67546 13.6999 7.78114 13.3793 8.54815 13.3793H19.6378V0H15.2708C14.2915 0 13.3396 0.48183 12.7575 1.28428ZM16.1972 9.92767H11.5652C10.5595 9.92767 9.63308 10.3558 9.02457 11.1851C8.23025 12.2553 8.07174 12.5768 7.33026 12.5768H3.41415V6.15453H8.0462C9.05187 6.15453 9.97828 5.6727 10.5868 4.87024C11.3811 3.82688 11.5925 3.50536 12.3066 3.50536H16.1972V9.92767ZM32.8189 6.63636C33.799 6.07482 34.4859 5.08429 34.4859 3.77314C34.4859 1.84672 33.0302 0 30.9132 0H24.5613V13.3793H30.9132C33.2151 13.3793 34.8038 11.7197 34.8038 9.63301C34.8038 8.40247 34.2481 7.33134 32.8189 6.63636ZM26.8113 2.08674H30.7283C31.7075 2.08674 32.2896 3.02353 32.2896 3.85285C32.2896 4.87024 31.416 5.56522 30.5962 5.56522H26.8113V2.08674ZM30.5953 11.2917H26.8104V7.65196H30.7274C31.7331 7.65196 32.5538 8.53501 32.5538 9.44494C32.5538 10.4623 31.5226 11.2917 30.5953 11.2917Z" fill="currentColor"/>
<path d="M47.7727 10.5421C47.4019 11.1314 46.6877 11.4789 45.8934 11.4789C44.65 11.4789 43.6179 10.6227 43.6179 9.3116H50.3405C50.4462 8.91037 50.4726 8.72319 50.4726 8.37481C50.4726 5.37815 48.6462 3.31738 45.8943 3.31738C43.1943 3.31738 41.2896 5.27067 41.2896 8.45451C41.2896 11.5586 43.1151 13.5657 45.9471 13.5657C47.9321 13.5657 49.6792 12.576 50.182 10.5421C50.1811 10.5421 47.7727 10.5421 47.7727 10.5421ZM45.8934 5.40501C47.1377 5.40501 48.0906 6.20747 48.0641 7.41204H43.6443C43.6434 6.23523 44.65 5.40501 45.8934 5.40501Z" fill="currentColor"/>
</g>
</svg>
