<svg width="24" height="24" viewBox="0 0 24 24" fill="none" xmlns="http://www.w3.org/2000/svg">
<path fill-rule="evenodd" clip-rule="evenodd" d="M21 1C21 0.447715 20.5523 0 20 0C19.4477 0 19 0.447715 19 1V3.58579L18.3287 4.25708C16.6053 2.84697 14.4005 2 12 2C6.47715 2 2 6.47715 2 12C2 17.5228 6.47715 22 12 22C17.5228 22 22 17.5228 22 12C22 10.833 21.7997 9.71063 21.4307 8.66675C21.2467 8.14604 20.6754 7.87311 20.1546 8.05716C19.6339 8.24121 19.361 8.81253 19.545 9.33325C19.8394 10.166 20 11.0632 20 12C20 16.4183 16.4183 20 12 20C7.58172 20 4 16.4183 4 12C4 7.58172 7.58172 4 12 4C13.8495 4 15.5507 4.62654 16.9057 5.6801L14.7573 7.82849C13.9669 7.30526 13.0183 7 12 7C9.23858 7 7 9.23858 7 12C7 14.7614 9.23858 17 12 17C14.3312 17 16.2874 15.4056 16.8424 13.2493C16.9801 12.7144 16.6581 12.1692 16.1232 12.0316C15.5884 11.8939 15.0432 12.2159 14.9055 12.7507C14.5725 14.0449 13.3965 15 12 15C10.3431 15 9 13.6569 9 12C9 10.3431 10.3431 9 12 9C12.4637 9 12.9021 9.10474 13.2936 9.29218L11.2929 11.2929C10.9024 11.6834 10.9024 12.3166 11.2929 12.7071C11.6834 13.0976 12.3166 13.0976 12.7071 12.7071L20.4142 5H23C23.5523 5 24 4.55228 24 4C24 3.44772 23.5523 3 23 3H21V1Z" fill="currentColor"/>
</svg>
