<svg width="24" height="24" viewBox="0 0 24 24" fill="none" xmlns="http://www.w3.org/2000/svg">
<path fill-rule="evenodd" clip-rule="evenodd" d="M1 5C1.55228 5 2 5.44772 2 6L2 14L10 14V9C10 8.73478 10.1054 8.48043 10.2929 8.29289C10.4804 8.10536 10.7348 8 11 8H20C22.2091 8 24 9.79086 24 12V18C24 18.5523 23.5523 19 23 19C22.4477 19 22 18.5523 22 18V16H2V18C2 18.5523 1.55229 19 1 19C0.447716 19 0 18.5523 0 18V15V6C0 5.44772 0.447715 5 1 5ZM12 14H22V12C22 10.8954 21.1046 10 20 10H12V14ZM6 12C7.10457 12 8 11.1046 8 10C8 8.89543 7.10457 8 6 8C4.89543 8 4 8.89543 4 10C4 11.1046 4.89543 12 6 12Z" fill="currentColor"/>
</svg>
