<svg width="24" height="25" viewBox="0 0 24 25" fill="none" xmlns="http://www.w3.org/2000/svg">
<g clip-path="url(#clip0_101_1068)">
<path d="M8 12.6746L8.66691 13.4198C8.87887 13.2301 9 12.9591 9 12.6746H8ZM16 12.6746H15C15 12.9591 15.1211 13.2301 15.3331 13.4198L16 12.6746ZM9 5.14685C9 3.49 10.3431 2.14685 12 2.14685V0.146851C9.23858 0.146851 7 2.38543 7 5.14685H9ZM9 12.6746V5.14685H7V12.6746H9ZM7 17.1469C7 15.6661 7.6424 14.3367 8.66691 13.4198L7.33309 11.9295C5.9026 13.2098 5 15.0736 5 17.1469H7ZM12 22.1469C9.23858 22.1469 7 19.9083 7 17.1469H5C5 21.0128 8.13401 24.1469 12 24.1469V22.1469ZM17 17.1469C17 19.9083 14.7614 22.1469 12 22.1469V24.1469C15.866 24.1469 19 21.0128 19 17.1469H17ZM15.3331 13.4198C16.3576 14.3367 17 15.6661 17 17.1469H19C19 15.0736 18.0974 13.2098 16.6669 11.9295L15.3331 13.4198ZM15 5.14685V12.6746H17V5.14685H15ZM12 2.14685C13.6569 2.14685 15 3.49 15 5.14685H17C17 2.38543 14.7614 0.146851 12 0.146851V2.14685Z" fill="currentColor"/>
<circle cx="12" cy="17.1469" r="2.5" fill="currentColor"/>
<path d="M11.25 6.89685C11.25 6.48264 11.5858 6.14685 12 6.14685C12.4142 6.14685 12.75 6.48264 12.75 6.89685V15.1469H11.25V6.89685Z" fill="currentColor"/>
<path d="M20 4.14685H23" stroke="currentColor" stroke-width="2" stroke-linecap="round" stroke-linejoin="round"/>
<path d="M20 8.14685H22" stroke="currentColor" stroke-width="2" stroke-linecap="round" stroke-linejoin="round"/>
</g>
<defs>
<clipPath id="clip0_101_1068">
<rect width="24" height="24" fill="white" transform="translate(0 0.146851)"/>
</clipPath>
</defs>
</svg>
