<svg width="24" height="24" viewBox="0 0 24 24" fill="none" xmlns="http://www.w3.org/2000/svg">
<path fill-rule="evenodd" clip-rule="evenodd" d="M19.7152 5.32586C17.9704 3.55805 15.147 3.55805 13.4022 5.32586C13.1866 5.54438 12.9979 5.77902 12.8359 6.02576C12.651 6.30732 12.3368 6.47689 12 6.47689C11.6632 6.47689 11.349 6.30732 11.1641 6.02576C11.0021 5.77902 10.8134 5.54438 10.5977 5.32586C8.85295 3.55805 6.02958 3.55805 4.28479 5.32586C2.54054 7.09312 2.604 10.0675 4.28249 11.7571C5.31314 12.7945 7.4213 14.9305 9.27037 16.8057C10.1952 17.7436 11.0557 18.6167 11.685 19.2554L12 19.5751L12.315 19.2554C12.9443 18.6167 13.8048 17.7436 14.7296 16.8057C16.5787 14.9305 18.6869 12.7945 19.7175 11.7571C21.396 10.0675 21.4595 7.09312 19.7152 5.32586ZM12 21C11.2875 21.7017 11.2875 21.7017 11.2875 21.7016L10.2604 20.6591C9.63123 20.0206 8.7709 19.1476 7.84628 18.21C5.99642 16.334 3.89112 14.2009 2.86364 13.1667C0.425872 10.7128 0.332886 6.48276 2.86134 3.92095C5.38219 1.36683 9.47039 1.35971 12 3.89956C14.5296 1.3597 18.6178 1.36683 21.1387 3.92094C23.6671 6.48276 23.5741 10.7128 21.1364 13.1667C20.1089 14.2009 18.0036 16.334 16.1537 18.21C15.2291 19.1476 14.3688 20.0206 13.7396 20.6591L12.7136 21.7005L12.7127 21.7014C12.7127 21.7015 12.7125 21.7017 12 21ZM12 21L12.7127 21.7014C12.5248 21.8923 12.2678 22 12 22C11.7321 22 11.4754 21.8925 11.2875 21.7016L12 21Z" fill="currentColor"/>
</svg>
