<svg width="24" height="19" viewBox="0 0 24 19" fill="none" xmlns="http://www.w3.org/2000/svg">
<path d="M17 11.3414C17 10.1205 16.4732 8.94971 15.5355 8.08645C14.5978 7.22319 13.3261 6.73822 12 6.73822C10.6739 6.73822 9.40215 7.22319 8.46448 8.08645C7.5268 8.94971 7.00002 10.1205 7.00002 11.3414H17Z" fill="currentColor"/>
<path fill-rule="evenodd" clip-rule="evenodd" d="M2.00005 14.1033C2.00005 13.5948 2.44776 13.1826 3.00004 13.1826H20.9999C21.5522 13.1826 21.9999 13.5948 21.9999 14.1033C21.9999 14.6117 21.5522 15.0239 20.9999 15.0239H3.00004C2.44776 15.0239 2.00005 14.6117 2.00005 14.1033ZM4.00004 17.7858C4.00004 17.2773 4.44775 16.8651 5.00003 16.8651H19C19.5522 16.8651 19.9999 17.2773 19.9999 17.7858C19.9999 18.2942 19.5522 18.7064 19 18.7064H5.00003C4.44775 18.7064 4.00004 18.2942 4.00004 17.7858Z" fill="currentColor"/>
<path fill-rule="evenodd" clip-rule="evenodd" d="M12 0.293701C12.5523 0.293701 13 0.705881 13 1.21433V3.97622C13 4.48467 12.5523 4.89685 12 4.89685C11.4477 4.89685 11 4.48467 11 3.97622V1.21433C11 0.705881 11.4477 0.293701 12 0.293701Z" fill="currentColor"/>
<path fill-rule="evenodd" clip-rule="evenodd" d="M20.8284 3.32544C21.2189 3.68497 21.2189 4.26788 20.8284 4.62741L18.7071 6.58036C18.3166 6.93989 17.6834 6.93989 17.2929 6.58036C16.9024 6.22083 16.9024 5.63792 17.2929 5.27839L19.4142 3.32544C19.8047 2.96592 20.4379 2.96592 20.8284 3.32544Z" fill="currentColor"/>
<path fill-rule="evenodd" clip-rule="evenodd" d="M3.29286 3.3254C3.68338 2.96587 4.31654 2.96587 4.70707 3.3254L6.82837 5.27835C7.21889 5.63788 7.21889 6.22079 6.82837 6.58031C6.43785 6.93984 5.80469 6.93984 5.41417 6.58032L3.29286 4.62737C2.90234 4.26784 2.90234 3.68493 3.29286 3.3254Z" fill="currentColor"/>
<path fill-rule="evenodd" clip-rule="evenodd" d="M0 10.4207C0 9.91223 0.447713 9.50004 0.999994 9.50004H3.99998C4.55226 9.50004 4.99997 9.91223 4.99997 10.4207C4.99997 10.9291 4.55226 11.3413 3.99998 11.3413H0.999994C0.447713 11.3413 0 10.9291 0 10.4207Z" fill="currentColor"/>
<path fill-rule="evenodd" clip-rule="evenodd" d="M18.9999 10.4207C18.9999 9.91223 19.4476 9.50004 19.9999 9.50004H22.9999C23.5522 9.50004 23.9999 9.91223 23.9999 10.4207C23.9999 10.9291 23.5522 11.3413 22.9999 11.3413H19.9999C19.4476 11.3413 18.9999 10.9291 18.9999 10.4207Z" fill="currentColor"/>
</svg>
