<?xml version="1.0" encoding="utf-8"?>
<!-- Generator: Adobe Illustrator 27.0.0, SVG Export Plug-In . SVG Version: 6.00 Build 0)  -->
<svg version="1.1" id="Layer_1" xmlns="http://www.w3.org/2000/svg" xmlns:xlink="http://www.w3.org/1999/xlink" x="0px" y="0px"
	 viewBox="0 0 620.66 133" style="enable-background:new 0 0 620.66 133;" xml:space="preserve">
<g>
	<g>
		<polygon fill="currentColor" points="334.29,20.09 317.65,32.77 309.61,61.43 318.92,74.62 345.89,74.62 340.4,94.42 318.13,94.42 
			320.75,85.01 303.06,85.01 299.3,98.82 308.87,111.89 340.16,111.89 356.87,99 364.82,70.08 355.42,57.01 328.49,57.01 
			333.93,37.45 356.09,37.45 353.44,46.96 371.2,46.96 375.22,32.77 365.97,20.09 		"/>
		<polygon fill="currentColor" points="401.89,20.09 385.18,32.77 366.83,98.91 376.47,111.89 407.76,111.89 424.49,98.91 429.64,80.23 
			411.96,80.23 408.03,94.42 385.8,94.42 401.66,37.35 423.83,37.35 419.84,51.74 437.51,51.74 442.84,32.77 433.71,20.09 		"/>
		<path fill="currentColor" d="M536.98,37.35h22.16l-8.24,29.68h-22.13L536.98,37.35z M524.17,20.09l-25.51,91.8h17.68l7.61-27.5h14.39
			l3.3,27.5h17.29l-3.79-31.29l12.45-10.08l10.48-37.74l-9.29-12.69H524.17z"/>
		<polygon fill="currentColor" points="225.75,20.09 211.41,71.91 202.9,20.09 185.37,20.09 159.87,111.89 177.57,111.89 192.15,59.86 
			200.8,111.89 218.05,111.89 243.47,20.09 		"/>
		<path fill="currentColor" d="M266.37,37.35h22.28L280.45,67h-22.28L266.37,37.35z M266.58,20.09l-16.5,12.6l-22.02,79.2h17.68l7.61-27.48
			h22.28l-7.61,27.48h17.62l22.02-79.11l-9.27-12.69H266.58z"/>
		<path fill="currentColor" d="M469.17,37.35h22.28L483.25,67h-22.28L469.17,37.35z M469.38,20.09L452.8,32.77l-21.93,79.11h17.67
			l7.61-27.48h22.28l-7.61,27.48h17.71l21.93-79.2l-9.28-12.6H469.38z"/>
	</g>
	<g>
		<path fill="currentColor" d="M593.07,25.75c0,2.46-1.99,4.45-4.45,4.45s-4.45-1.99-4.45-4.45c0-2.46,1.99-4.45,4.45-4.45
			C591.11,21.3,593.07,23.33,593.07,25.75z M584.76,25.75c0,2.14,1.73,3.86,3.86,3.86s3.86-1.73,3.86-3.86
			c0-2.14-1.73-3.86-3.86-3.86C586.45,21.88,584.76,23.65,584.76,25.75z M586.89,23.47c0.37-0.07,0.96-0.12,1.55-0.12
			c1.23,0,2.05,0.43,2.05,1.34c0,0.62-0.5,1.05-0.94,1.18v0.03c0.35,0.14,0.57,0.48,0.71,0.84c0.18,0.61,0.32,1.16,0.43,1.35h-0.89
			c-0.07-0.13-0.2-0.48-0.34-1.07c-0.16-0.61-0.43-0.84-0.98-0.87h-0.8v1.94h-0.78V23.47z M587.73,25.5h0.84
			c0.7,0,1.09-0.29,1.09-0.75c0-0.55-0.5-0.75-1.1-0.75c-0.41,0-0.71,0.03-0.82,0.07V25.5z"/>
	</g>
</g>
<g>
	<polygon fill="currentColor" points="140.46,20.1 114.95,111.9 150.24,111.9 175.66,20.1 	"/>
	<polygon fill="currentColor" points="89.86,20.13 64.32,112.01 81.35,112.01 106.79,20.13 	"/>
	<polygon fill="currentColor" points="113.75,20.13 88.22,112.01 105.25,112.01 130.69,20.13 	"/>
	<polygon fill="currentColor" points="52.33,20.13 26.79,112.01 37.37,112.01 62.81,20.13 	"/>
	<polygon fill="currentColor" points="69.71,20.13 44.17,112.01 54.75,112.01 80.19,20.13 	"/>
</g>
</svg>
