<svg width="24" height="24" viewBox="0 0 24 24" fill="none" xmlns="http://www.w3.org/2000/svg">
<path d="M11.3618 4.65637L7 8.27234V8.29825H2.5C1.67157 8.29825 1 8.96983 1 9.79825V13.7983C1 14.6267 1.67157 15.2983 2.5 15.2983H7V15.3242L11.3618 18.9402C12.0136 19.4805 13 19.0169 13 18.1703V5.42622C13 4.57958 12.0136 4.11603 11.3618 4.65637Z" fill="currentColor"/>
<path fill-rule="evenodd" clip-rule="evenodd" d="M21.5407 11.9999C21.5407 10.1467 21.0374 8.41301 20.1598 6.9259C19.8791 6.45025 19.9704 5.82663 20.4157 5.49995C20.861 5.17326 21.4908 5.26745 21.7794 5.73836C22.8965 7.56154 23.5407 9.70661 23.5407 11.9999C23.5407 14.2097 22.9426 16.282 21.8994 18.0613C21.6201 18.5377 20.9923 18.6441 20.5407 18.3261C20.0891 18.0081 19.9858 17.3864 20.2571 16.9054C21.0744 15.4565 21.5407 13.7837 21.5407 11.9999Z" fill="currentColor"/>
<path fill-rule="evenodd" clip-rule="evenodd" d="M16.9654 11.9999C16.9654 11.2514 16.8014 10.5424 16.5073 9.90584C16.2757 9.40447 16.361 8.78118 16.8063 8.45449C17.2516 8.1278 17.8847 8.2214 18.1447 8.70866C18.6684 9.69016 18.9654 10.8112 18.9654 11.9999C18.9654 13.1401 18.6921 14.2181 18.2076 15.1705C17.9572 15.6627 17.326 15.7686 16.8745 15.4506C16.4229 15.1326 16.3255 14.5111 16.5473 14.0053C16.8162 13.3919 16.9654 12.714 16.9654 11.9999Z" fill="currentColor"/>
</svg>
