<svg width="24" height="15" viewBox="0 0 24 15" fill="none" xmlns="http://www.w3.org/2000/svg">
<path fill-rule="evenodd" clip-rule="evenodd" d="M1 0.0979462C1.55228 0.0979462 2 0.545661 2 1.09795L2 9.09795L10 9.09795V4.09795C10 3.83273 10.1054 3.57838 10.2929 3.39084C10.4804 3.2033 10.7348 3.09795 11 3.09795H20C22.2091 3.09795 24 4.88881 24 7.09795V13.0979C24 13.6502 23.5523 14.0979 23 14.0979C22.4477 14.0979 22 13.6502 22 13.0979V11.0979H2V13.0979C2 13.6502 1.55229 14.0979 1 14.0979C0.447716 14.0979 0 13.6502 0 13.0979V1.09795C0 0.545661 0.447715 0.0979462 1 0.0979462ZM12 9.09795H22V7.09795C22 5.99338 21.1046 5.09795 20 5.09795H12V9.09795Z" fill="currentColor"/>
<path d="M6 7.09795C7.10457 7.09795 8 6.20252 8 5.09795C8 3.99338 7.10457 3.09795 6 3.09795C4.89543 3.09795 4 3.99338 4 5.09795C4 6.20252 4.89543 7.09795 6 7.09795Z" fill="currentColor"/>
</svg>
