<svg width="24" height="24" viewBox="0 0 24 24" fill="none" xmlns="http://www.w3.org/2000/svg">
<path fill-rule="evenodd" clip-rule="evenodd" d="M9.98058 1.80389C9.88885 1.34521 9.49141 1.01141 9.02379 1.00029C8.55617 0.989159 8.1433 1.30368 8.02986 1.75747L4.86274 14.4259L3.94868 11.6838C3.81257 11.2754 3.43043 11 3 11H1C0.447715 11 0 11.4477 0 12C0 12.5523 0.447715 13 1 13H2.27924L4.05132 18.3162C4.19191 18.738 4.5941 19.0163 5.03838 18.9993C5.48265 18.9822 5.86231 18.6739 5.97014 18.2425L8.89157 6.55685L12.0194 22.1961C12.1129 22.6635 12.5233 23 13 23C13.4767 23 13.8871 22.6635 13.9806 22.1961L15.8198 13H18.1707C18.5825 14.1652 19.6938 15 21 15C22.6569 15 24 13.6569 24 12C24 10.3431 22.6569 9 21 9C19.6938 9 18.5825 9.83481 18.1707 11H15C14.5233 11 14.1129 11.3365 14.0194 11.8039L13 16.901L9.98058 1.80389Z" fill="currentColor"/>
</svg>
