<svg width="35" height="47" viewBox="0 0 35 47" fill="none" xmlns="http://www.w3.org/2000/svg">
<g>
<path fill-rule="evenodd" clip-rule="evenodd" d="M34.1588 0.86333C33.5866 0.285871 32.9154 0 32.1166 0H2.89755C2.09881 0 1.41337 0.288729 0.855386 0.86333C0.286073 1.42649 0 2.1183 0 2.92446V30.6568C0 31.4629 0.286073 32.1547 0.855386 32.7179C1.41337 33.2954 2.09881 33.5669 2.89755 33.5669H32.1166C32.9154 33.5669 33.5866 33.2925 34.1588 32.7179C34.7309 32.1547 35 31.4629 35 30.6568V2.92446C35 2.1183 34.7281 1.42649 34.1588 0.86333ZM34.088 30.6539C34.088 31.2028 33.8869 31.6773 33.5017 32.0661C33.1306 32.4549 32.6604 32.6436 32.1166 32.6436H2.89755C2.33956 32.6436 1.88355 32.4549 1.49834 32.0661C1.11313 31.6773 0.926196 31.2028 0.926196 30.6539V2.92446C0.926196 2.37559 1.11313 1.91533 1.49834 1.51226C1.88355 1.12347 2.33956 0.934797 2.89755 0.934797H32.1166C32.6604 0.934797 33.1306 1.12347 33.5017 1.51226C33.8869 1.91533 34.088 2.37844 34.088 2.92446V30.6568V30.6539Z" fill="currentColor"/>
<path fill-rule="evenodd" clip-rule="evenodd" d="M32.858 2.17534C32.6427 1.97237 32.402 1.87231 32.1159 1.87231H2.89682C2.61075 1.87231 2.353 1.97237 2.15473 2.17534C1.95363 2.37831 1.84033 2.63559 1.84033 2.92432V30.6566C1.84033 30.9454 1.95363 31.2055 2.15473 31.4056C2.35583 31.6086 2.61075 31.7086 2.89682 31.7086H32.1159C32.402 31.7086 32.6455 31.6086 32.858 31.4056C33.0591 31.2026 33.1582 30.9454 33.1582 30.6566V2.92432C33.1582 2.63559 33.0591 2.37545 32.858 2.17534ZM26.046 29.07L17.8491 23.1039L9.79372 28.9271L12.8782 19.3705L4.62458 13.5044H14.7221L17.8916 3.96203L21.0044 13.5044H31.0141L23.0182 19.2704L26.046 29.07Z" fill="currentColor"/>
<path fill-rule="evenodd" clip-rule="evenodd" d="M27.7035 14.456H20.2061L17.8779 7.3064L15.5071 14.456H7.93896L14.1079 18.8499L11.808 25.9995L17.8495 21.6485L23.976 26.1167L21.7186 18.7784L27.7035 14.456Z" fill="currentColor"/>
<path fill-rule="evenodd" clip-rule="evenodd" d="M20.7503 18.5643L25.2765 15.3054H19.6202L17.8641 9.91675L16.0797 15.3054H10.3667L15.0232 18.6215L13.2954 24.0102L17.8357 20.7255L22.4639 24.0988L20.7503 18.5643Z" fill="white"/>
<path fill-rule="evenodd" clip-rule="evenodd" d="M34.1588 35.325C33.5866 34.7475 32.9154 34.4617 32.1166 34.4617H2.89755C2.09881 34.4617 1.41337 34.7504 0.855386 35.325C0.28324 35.8882 0 36.58 0 37.3861V44.0869C0 44.8788 0.286073 45.5706 0.855386 46.1338C1.41337 46.7112 2.09881 46.9971 2.89755 46.9971H32.1166C32.9154 46.9971 33.5866 46.7084 34.1588 46.1338C34.7309 45.5706 35 44.8788 35 44.0869V37.3861C35 36.58 34.7281 35.8882 34.1588 35.325ZM34.088 44.0869C34.088 44.6358 33.8869 45.0961 33.5017 45.4848C33.1306 45.8736 32.6604 46.0623 32.1166 46.0623H2.89755C2.33956 46.0623 1.88355 45.8736 1.49834 45.4848C1.11313 45.0961 0.926196 44.6358 0.926196 44.0869V37.3861C0.926196 36.8373 1.11313 36.3627 1.49834 35.9739C1.88355 35.5851 2.33956 35.3965 2.89755 35.3965H32.1166C32.6604 35.3965 33.1306 35.5823 33.5017 35.9739C33.8869 36.3627 34.088 36.8373 34.088 37.3861V44.0869Z" fill="currentColor"/>
<path fill-rule="evenodd" clip-rule="evenodd" d="M2.89682 36.3337C2.61075 36.3337 2.353 36.4338 2.15473 36.6368C1.95646 36.8397 1.84033 37.097 1.84033 37.3857V44.0866C1.84033 44.3753 1.95363 44.6211 2.15473 44.8212C2.35583 45.0385 2.61075 45.1386 2.89682 45.1386H32.1159C32.402 45.1386 32.6455 45.0385 32.858 44.8212C33.0591 44.6183 33.1582 44.3753 33.1582 44.0866V37.3857C33.1582 37.097 33.0591 36.8369 32.858 36.6368C32.6427 36.4338 32.402 36.3337 32.1159 36.3337H2.89682Z" fill="currentColor"/>
<path fill-rule="evenodd" clip-rule="evenodd" d="M22.3051 40.2849V38.7727L21.4186 37.9379H19.147V43.7325H20.4612V41.4112H21.0192V43.7325H22.3051V41.4112L21.6339 40.8481L22.3051 40.2849ZM3.96816 37.9351V42.8778L4.85471 43.7268H6.33889L7.19427 42.8778V37.9351H5.86587V42.6348H5.29373V37.9351H3.96533H3.96816ZM21.0192 39.0156V40.3278H20.4612V39.0156H21.0192ZM27.0891 37.9351H25.5312L25.1036 40.7309H24.9903L24.5201 37.9351H22.9764V43.7297H24.1774V40.0534H24.234L24.792 43.7297H25.2763L25.8343 40.0534H25.891V43.7297H27.0919V37.9351H27.0891ZM29.4315 40.0248H29.4173L28.9471 37.9351H27.6329L28.7602 41.294V43.7297H30.0886V41.294L31.23 37.9351H29.9158L29.4315 40.0248ZM8.96735 43.7297V42.6062H7.63896V43.7297H8.96735ZM13.165 42.6062V43.7297H14.4792V42.6062H13.165ZM12.709 38.7727L11.7799 37.9379H10.3807L9.52534 38.7727V40.5165L10.4402 41.3512L11.3834 41.4227V42.6348H10.8396V41.8715H9.52534V42.8806L10.3807 43.7297H11.8366L12.709 42.8806V41.1225L11.8083 40.2878L10.8367 40.202V39.0214H11.3806V39.7989H12.709V38.7755V38.7727ZM17.7648 37.9379H15.8501L15.0514 43.7325H16.3373L16.4506 42.6519H17.2068L17.3201 43.7325H18.606L17.7648 37.9379ZM16.5355 41.5685L16.7366 39.1614H16.8641L17.1077 41.5685H16.5355Z" fill="white"/>
</g>
</svg>
