<svg width="173" height="29" viewBox="0 0 173 29" fill="none" xmlns="http://www.w3.org/2000/svg">
<g clip-path="url(#clip0_1712_1219)">
<path d="M112.41 7.05371V15.4066H113.893V12.049H117.481V10.6706H113.893V8.43212H117.929V7.05371H112.41Z" fill="currentColor"/>
<path d="M122.874 15.5715C123.805 15.5715 124.668 15.2769 125.312 14.629C126.22 13.71 126.485 12.5908 126.485 11.2242C126.485 9.85757 126.232 8.73833 125.312 7.83117C124.656 7.1832 123.805 6.88867 122.874 6.88867C121.943 6.88867 121.08 7.1832 120.436 7.83117C119.528 8.75011 119.264 9.85757 119.264 11.2242C119.264 12.5908 119.54 13.7218 120.436 14.629C121.08 15.2769 121.92 15.5715 122.874 15.5715ZM122.874 14.1931C122.322 14.1931 121.805 14.0046 121.46 13.6394C120.908 13.0503 120.77 12.2845 120.77 11.2242C120.77 10.1639 120.908 9.40989 121.46 8.8208C121.805 8.45558 122.322 8.26708 122.874 8.26708C123.426 8.26708 123.943 8.45558 124.288 8.8208C124.84 9.40989 124.978 10.1639 124.978 11.2242C124.978 12.2845 124.84 13.0503 124.288 13.6394C123.943 14.0046 123.426 14.1931 122.874 14.1931Z" fill="currentColor"/>
<path d="M128.551 7.05371V15.4066H130.046V12.2493H131.805L133.127 15.4066H134.76L133.265 11.9901C134.208 11.6484 134.817 10.7648 134.817 9.64561C134.817 8.30252 133.932 7.05371 131.989 7.05371H128.551ZM131.977 10.8826H130.034V8.38499H131.989C132.851 8.38499 133.334 8.95049 133.334 9.62205C133.334 10.4114 132.851 10.8826 131.977 10.8826Z" fill="currentColor"/>
<path d="M112.41 28.0941H115.883C117.481 28.0941 118.654 27.2223 118.654 25.6907C118.654 24.8543 118.228 24.0649 117.262 23.7704C118.09 23.523 118.481 22.7101 118.481 21.9679C118.481 20.4834 117.331 19.7412 115.86 19.7412H112.41V28.0941ZM113.882 26.7275V24.4184H115.733C116.538 24.4184 117.147 24.7247 117.147 25.5847C117.147 26.433 116.389 26.7275 115.687 26.7275H113.882ZM113.882 23.146V21.0489H115.687C116.366 21.0489 116.975 21.2846 116.975 22.0857C116.975 22.8515 116.4 23.146 115.722 23.146H113.882Z" fill="currentColor"/>
<path d="M123.85 28.2591C125.874 28.2591 127.046 27.0809 127.046 25.0899V19.7412H125.563V25.0074C125.563 26.1973 125.011 26.8806 123.85 26.8806C122.689 26.8806 122.137 26.1973 122.137 25.0074V19.7412H120.653V25.0899C120.653 27.0809 121.826 28.2591 123.85 28.2591Z" fill="currentColor"/>
<path d="M132.173 28.259C133.967 28.259 135.427 27.2811 135.427 25.62C135.427 24.218 134.427 23.4404 133.093 23.2284L131.575 22.981C130.989 22.8867 130.587 22.5568 130.587 22.0502C130.587 21.2609 131.357 20.8721 132.185 20.8721C133.07 20.8721 133.749 21.3669 133.783 22.168H135.301C135.278 20.6247 133.898 19.5762 132.208 19.5762C130.598 19.5762 129.103 20.6483 129.103 22.1563C129.103 23.5111 129.977 24.2415 131.322 24.4654L132.886 24.7246C133.45 24.8188 133.932 25.1016 133.932 25.7024C133.932 26.5507 133.208 26.9512 132.196 26.9512C131.184 26.9512 130.437 26.3622 130.426 25.455H128.885C128.885 27.1751 130.322 28.259 132.173 28.259Z" fill="currentColor"/>
<path d="M137.39 19.7412V28.0941H138.896V19.7412H137.39Z" fill="currentColor"/>
<path d="M146.461 19.7412V25.514L143.276 19.7412H141.401V28.0941H142.862V21.7794L146.311 28.0941H147.921V19.7412H146.461Z" fill="currentColor"/>
<path d="M150.431 19.7412V28.0941H156.122V26.7157H151.914V24.4301H155.605V23.0635H151.914V21.1196H156.122V19.7412H150.431Z" fill="currentColor"/>
<path d="M160.951 28.259C162.744 28.259 164.205 27.2811 164.205 25.62C164.205 24.218 163.204 23.4404 161.87 23.2284L160.353 22.981C159.766 22.8867 159.364 22.5568 159.364 22.0502C159.364 21.2609 160.134 20.8721 160.962 20.8721C161.847 20.8721 162.526 21.3669 162.56 22.168H164.078C164.055 20.6247 162.675 19.5762 160.985 19.5762C159.375 19.5762 157.881 20.6483 157.881 22.1563C157.881 23.5111 158.754 24.2415 160.1 24.4654L161.664 24.7246C162.227 24.8188 162.71 25.1016 162.71 25.7024C162.71 26.5507 161.985 26.9512 160.974 26.9512C159.962 26.9512 159.214 26.3622 159.203 25.455H157.662C157.662 27.1751 159.099 28.259 160.951 28.259Z" fill="currentColor"/>
<path d="M168.87 28.259C170.663 28.259 172.124 27.2811 172.124 25.62C172.124 24.218 171.123 23.4404 169.789 23.2284L168.272 22.981C167.685 22.8867 167.283 22.5568 167.283 22.0502C167.283 21.2609 168.053 20.8721 168.881 20.8721C169.766 20.8721 170.445 21.3669 170.479 22.168H171.997C171.974 20.6247 170.594 19.5762 168.904 19.5762C167.294 19.5762 165.8 20.6483 165.8 22.1563C165.8 23.5111 166.673 24.2415 168.019 24.4654L169.582 24.7246C170.146 24.8188 170.629 25.1016 170.629 25.7024C170.629 26.5507 169.904 26.9512 168.893 26.9512C167.881 26.9512 167.133 26.3622 167.122 25.455H165.581C165.581 27.1751 167.018 28.259 168.87 28.259Z" fill="currentColor"/>
<path d="M76.176 5.4375L66.2256 27.7538H68.7685L71.2008 21.9765H83.3623L85.7946 27.7538H88.4481L78.4978 5.4375H76.176ZM77.3922 8.38279L82.5884 19.9374H72.3064L77.3922 8.38279Z" fill="currentColor"/>
<path d="M60.0331 17.8983C62.7971 17.1054 64.4555 14.7265 64.4555 11.7812C64.4555 8.04296 61.5809 5.4375 57.3797 5.4375H47.0977V27.7538H49.4194V18.1249H57.4903L62.576 27.7538H65.2294L59.9226 17.8983H60.0331ZM57.3797 15.9726H49.4194V7.70312H57.3797C60.2543 7.70312 62.1337 9.40234 62.1337 11.8945C62.1337 14.3867 60.1437 15.9726 57.3797 15.9726Z" fill="currentColor"/>
<path d="M34.7159 28.2069C40.5756 28.2069 44.5558 24.0155 44.5558 18.0116V5.4375H42.1235V17.7851C42.1235 22.4296 39.0278 25.6015 34.7159 25.6015C31.0675 25.6015 27.1979 23.1093 27.1979 17.7851V5.4375H24.7656V18.0116C24.7656 24.0155 28.8563 28.2069 34.7159 28.2069Z" fill="currentColor"/>
<path d="M11.277 25.7148C6.41245 25.7148 2.43231 21.6366 2.43231 16.6523C2.43231 11.668 6.41245 7.58983 11.277 7.58983C16.1417 7.58983 20.1218 11.668 20.1218 16.6523C20.1218 21.6366 16.2522 25.7148 11.277 25.7148ZM11.277 4.98438C5.08574 4.98438 0 10.1953 0 16.6523C0 23.1093 5.08574 28.2069 11.277 28.2069C17.4684 28.2069 22.5542 22.996 22.5542 16.6523C22.5542 10.3086 17.579 4.98438 11.277 4.98438Z" fill="currentColor"/>
<path d="M16.9157 0H5.63867V2.49218H16.9157V0Z" fill="currentColor"/>
<path fill-rule="evenodd" clip-rule="evenodd" d="M99.0615 28.0938V5.4375H100.83V28.0938H99.0615Z" fill="currentColor"/>
</g>
<defs>
<clipPath id="clip0_1712_1219">
<rect width="172.474" height="29" fill="white"/>
</clipPath>
</defs>
</svg>
